<svg xmlns="http://www.w3.org/2000/svg" xmlns:xlink="http://www.w3.org/1999/xlink" width="1080" zoomAndPan="magnify" viewBox="0 0 810 809.999993" height="1080" preserveAspectRatio="xMidYMid meet" version="1.0"><path fill="currentColor" d="M 378.105469 126.9375 C 368.582031 128.550781 362.425781 130.46875 353.875 134.480469 C 335.285156 143.203125 322.308594 155.683594 313.09375 173.695312 C 304.714844 190.074219 303.480469 197.320312 303.964844 227.375 C 304.359375 251.960938 305.285156 260.636719 308.992188 274.429688 C 318.371094 309.324219 339.957031 335.453125 368.21875 346.101562 C 383.371094 351.816406 404.8125 352.105469 420.464844 346.808594 C 450.464844 336.664062 475.695312 303.308594 483.253906 263.800781 C 486.667969 245.972656 487.363281 210.863281 484.570312 197.21875 C 478.230469 166.191406 455.359375 140.625 424.941406 130.558594 C 411.117188 125.984375 392.316406 124.53125 378.105469 126.9375 M 270.769531 245.210938 C 263.59375 247.761719 253.90625 253.25 249.542969 257.234375 C 241.535156 264.558594 237.816406 272.210938 236.667969 283.730469 C 234.988281 300.574219 239.207031 315.542969 254.570312 347.253906 C 270.515625 380.171875 295.351562 416.386719 316.226562 437.160156 C 334.359375 455.203125 354.203125 466.917969 372.476562 470.363281 C 383.472656 472.433594 382.851562 471.859375 382.851562 479.945312 C 382.851562 498.300781 386.273438 531.742188 389.242188 542.410156 C 393.046875 556.097656 399.175781 567.1875 407.769531 575.941406 C 420.613281 589.027344 431.699219 593.917969 450.085938 594.605469 C 459.191406 594.945312 461.992188 594.742188 469.070312 593.222656 C 481.378906 590.582031 480.613281 590.398438 485.121094 597.027344 C 490.335938 604.695312 502.007812 615.554688 511.023438 621.132812 C 538.652344 638.226562 574.273438 640.007812 602.859375 625.730469 C 631.113281 611.613281 649.910156 583.972656 653.394531 551.398438 C 655.714844 529.746094 649.117188 505.851562 635.863281 487.921875 C 630.960938 481.285156 619.492188 470.324219 612.917969 465.984375 C 593.195312 452.972656 570.09375 447.714844 546.863281 450.945312 C 538.820312 452.066406 523.484375 457.128906 516.769531 460.882812 C 504.523438 467.734375 491.304688 479.816406 484 490.839844 C 471.105469 510.296875 466.316406 531.027344 469.09375 555.355469 C 470.800781 570.285156 470.921875 569.621094 466.304688 570.933594 C 464.085938 571.5625 458.527344 572.089844 453.648438 572.136719 C 446.070312 572.207031 444.128906 571.933594 438.617188 570.03125 C 430.59375 567.253906 425.746094 564.152344 420.832031 558.636719 C 415.300781 552.429688 411.574219 544.8125 408.832031 534.09375 C 406.683594 525.707031 406.425781 523.316406 406.074219 508.625 C 405.863281 499.703125 405.980469 487.957031 406.332031 482.519531 L 406.976562 472.632812 L 412.910156 471.585938 C 448.019531 465.386719 477.390625 441.144531 510.367188 391.15625 C 523.878906 370.671875 538.160156 343.535156 546.375 322.734375 C 552.765625 306.546875 553.296875 304.117188 553.308594 291.09375 C 553.316406 281.148438 553.074219 278.921875 551.488281 274.332031 C 546.800781 260.769531 538.355469 252.929688 520.9375 245.96875 C 515.6875 243.875 513.890625 243.519531 509.945312 243.804688 C 505.726562 244.109375 504.949219 244.449219 502.574219 247.042969 C 501.011719 248.75 499.886719 250.835938 499.835938 252.125 C 499.476562 261.105469 501.414062 263.246094 514.339844 268.128906 C 522.082031 271.058594 526.796875 274.613281 529.414062 279.511719 C 530.90625 282.296875 531.167969 284.027344 531.164062 291.09375 C 531.160156 298.699219 530.902344 300.132812 528.113281 308.078125 C 521.652344 326.472656 508.316406 352.800781 494.253906 374.925781 C 471.664062 410.46875 446.054688 436.21875 424.15625 445.40625 C 414.875 449.296875 407.828125 450.957031 398.492188 451.445312 C 384.464844 452.183594 372.765625 449.425781 359.449219 442.242188 C 339.875 431.683594 317.878906 408.585938 297.242188 376.917969 C 279.535156 349.753906 262.40625 314.765625 259 298.820312 C 255.59375 282.855469 262.410156 271.71875 278.460938 267.039062 C 286.503906 264.695312 291.085938 260.382812 291.089844 255.15625 C 291.09375 251.765625 288.3125 246.574219 285.648438 245 C 282.628906 243.214844 276.113281 243.308594 270.769531 245.210938 M 317.234375 361.414062 C 311.378906 363.949219 306.449219 366.449219 306.277344 366.96875 C 305.78125 368.449219 317.714844 385.0625 330.976562 401.367188 C 339.429688 411.753906 355.878906 426.277344 358.25 425.449219 C 358.683594 425.296875 357.792969 422.324219 356.269531 418.84375 C 354.742188 415.363281 348.875 401.125 343.222656 387.203125 C 330.257812 355.25 330.941406 356.742188 329.273438 356.777344 C 328.503906 356.792969 323.085938 358.878906 317.234375 361.414062 M 458.910156 358.132812 C 456.246094 363.203125 431.101562 423.90625 431.101562 425.265625 C 431.101562 426.980469 431.933594 426.609375 437.59375 422.355469 C 448.886719 413.875 461.234375 399.847656 478.101562 376.328125 C 483.625 368.628906 484.660156 366.238281 482.460938 366.238281 C 482.046875 366.238281 476.9375 364.105469 471.113281 361.492188 C 465.289062 358.882812 460.324219 356.746094 460.078125 356.746094 C 459.835938 356.746094 459.308594 357.371094 458.910156 358.132812 M 524.160156 392.949219 C 505.726562 423.539062 480.101562 452.148438 457.886719 466.929688 C 449.320312 472.628906 435.863281 479.015625 428.910156 480.683594 C 420.632812 482.671875 419.265625 483.316406 418.71875 485.5 C 418.445312 486.59375 418.429688 495 418.683594 504.183594 C 419.480469 532.925781 422.707031 544.207031 432.71875 553.253906 C 437.476562 557.550781 442.285156 559.453125 449.460938 559.878906 L 455.558594 560.238281 L 455.488281 546.097656 C 455.371094 523.847656 457.578125 513.347656 465.933594 496.363281 C 479.03125 469.734375 508.144531 446.144531 537.007812 438.777344 C 543.050781 437.234375 545.753906 437.042969 560.828125 437.109375 C 576.53125 437.175781 578.429688 437.339844 585.585938 439.246094 C 589.84375 440.382812 596.519531 442.71875 600.414062 444.4375 C 607.226562 447.445312 607.5 447.5 607.492188 445.859375 C 607.484375 444.921875 606.3125 441.484375 604.886719 438.222656 C 597.4375 421.175781 580.664062 405.308594 558.851562 394.679688 C 550.070312 390.398438 533.613281 384.433594 530.589844 384.433594 C 529.78125 384.433594 527.34375 387.660156 524.160156 392.949219 M 249.566406 387.910156 C 221.476562 397.074219 199.785156 414.121094 189.132812 435.410156 C 183.027344 447.609375 179.574219 465.527344 170.070312 534.332031 C 169.230469 540.421875 166.929688 557.082031 164.953125 571.359375 C 162.980469 585.632812 161.367188 599.945312 161.367188 603.167969 C 161.367188 611.164062 163.585938 616.914062 168.613281 621.9375 C 173.878906 627.207031 178.265625 629.007812 186.644531 629.347656 C 190.359375 629.5 262.730469 629.773438 347.464844 629.953125 L 501.527344 630.28125 L 496.539062 626.503906 C 493.796875 624.425781 487.914062 618.886719 483.464844 614.191406 L 475.375 605.65625 L 467.59375 607.085938 C 458.394531 608.773438 443.148438 608.433594 435.453125 606.367188 C 410.371094 599.632812 390.003906 581.332031 380.8125 557.269531 C 375.109375 542.347656 372.1875 526.0625 370.753906 501.195312 C 369.992188 487.976562 369.5625 484.546875 368.613281 484.070312 C 367.960938 483.742188 363.867188 482.351562 359.515625 480.980469 C 331.273438 472.078125 299.203125 443.066406 272.042969 401.835938 C 267.3125 394.65625 262.882812 387.984375 262.203125 387.003906 C 260.59375 384.695312 259.082031 384.804688 249.566406 387.910156 M 558.515625 489.460938 C 549.984375 489.59375 544.332031 490.007812 543.683594 490.546875 C 542.882812 491.210938 542.632812 495.039062 542.625 506.941406 C 542.617188 515.480469 542.34375 522.890625 542.011719 523.410156 C 541.585938 524.078125 536.515625 524.421875 524.59375 524.59375 C 510.6875 524.796875 507.640625 525.042969 507.023438 526.023438 C 506.613281 526.679688 506.269531 534.214844 506.261719 542.777344 C 506.25 555.886719 506.445312 558.539062 507.492188 559.585938 C 508.539062 560.636719 511.246094 560.828125 524.738281 560.828125 C 536.128906 560.828125 541.011719 561.105469 541.6875 561.777344 C 542.363281 562.453125 542.636719 567.339844 542.636719 578.730469 C 542.636719 592.222656 542.832031 594.925781 543.878906 595.972656 C 545.628906 597.722656 575.507812 597.828125 577.882812 596.097656 C 579.296875 595.0625 579.449219 593.636719 579.8125 578.101562 L 580.210938 561.226562 L 596.382812 561.011719 C 610.03125 560.828125 612.777344 560.59375 613.980469 559.503906 C 615.265625 558.34375 615.410156 556.65625 615.410156 542.910156 C 615.410156 528.660156 615.300781 527.5 613.828125 526.023438 C 612.347656 524.546875 611.191406 524.441406 596.03125 524.441406 L 579.8125 524.441406 L 579.800781 508.425781 C 579.796875 499.613281 579.484375 491.921875 579.105469 491.328125 C 578.042969 489.648438 573.398438 489.226562 558.515625 489.460938 " fill-opacity="1" fill-rule="evenodd"/></svg>