<svg xmlns="http://www.w3.org/2000/svg" xmlns:xlink="http://www.w3.org/1999/xlink" width="1080" zoomAndPan="magnify" viewBox="0 0 810 809.999993" height="1080" preserveAspectRatio="xMidYMid meet" version="1.0"><path fill="currentColor" d="M 306.121094 131.414062 C 277.609375 134.320312 253.277344 152.792969 242.585938 179.648438 C 234.546875 199.84375 234.886719 225.332031 243.453125 244.820312 C 249.265625 258.039062 261.3125 272.519531 272.738281 280.019531 C 294.207031 294.117188 321.460938 296.667969 344.914062 286.777344 C 366.652344 277.609375 384.90625 256.449219 390.660156 233.746094 C 395.640625 214.101562 394.382812 194.277344 387.109375 177.675781 C 383.066406 168.457031 377.910156 160.960938 370.691406 153.816406 C 356.820312 140.089844 342.203125 133.183594 323.085938 131.324219 C 318.757812 130.902344 314.6875 130.597656 314.035156 130.644531 C 313.378906 130.691406 309.820312 131.035156 306.125 131.414062 M 525.839844 241.707031 C 522.097656 243.738281 521.242188 246.605469 520.835938 258.496094 C 520.46875 269.214844 520.4375 269.359375 518.300781 270.921875 C 515.300781 273.117188 510 278.449219 508.554688 280.730469 C 507.433594 282.496094 505.878906 282.855469 486.035156 285.976562 C 474.3125 287.820312 457.070312 290.464844 447.714844 291.859375 C 428.308594 294.746094 423.863281 295.925781 421.621094 298.773438 C 419.257812 301.777344 419.449219 307.199219 422.007812 309.753906 C 423.09375 310.84375 423.984375 312.277344 423.984375 312.941406 C 423.984375 313.605469 422.234375 317.949219 420.097656 322.59375 C 417.960938 327.238281 409.75 345.457031 401.851562 363.078125 C 393.949219 380.695312 386.398438 397.507812 385.0625 400.433594 C 383.65625 403.519531 382.007812 405.953125 381.140625 406.226562 C 376.695312 407.640625 376.148438 415.621094 379.964844 423.417969 C 381.144531 425.828125 384.445312 430.324219 387.308594 433.414062 C 400.507812 447.667969 418.523438 454.105469 442.179688 453.007812 C 462.550781 452.066406 478.945312 443.339844 488.917969 428.128906 C 495.996094 417.328125 496.835938 410.527344 491.503906 407.152344 C 488.667969 405.359375 486.378906 400.707031 467.894531 359.121094 C 466.445312 355.859375 461.453125 344.824219 456.800781 334.601562 C 452.144531 324.375 448.160156 315.226562 447.941406 314.265625 C 447.632812 312.917969 447.964844 312.433594 449.410156 312.125 C 451.605469 311.65625 479.894531 307.445312 492.40625 305.726562 C 497.191406 305.070312 502.0625 304.335938 503.226562 304.089844 C 505.105469 303.699219 505.652344 304.128906 508.035156 307.851562 C 510.925781 312.367188 515.113281 316.421875 518.917969 318.390625 L 521.277344 319.609375 L 521.277344 476.773438 L 515.542969 477.148438 C 509.0625 477.574219 502.773438 480.257812 500.003906 483.78125 C 497.152344 487.40625 496.636719 491.445312 496.675781 509.945312 C 496.714844 529.820312 497.035156 531.300781 502.199219 535.5625 C 505.410156 538.207031 512.3125 541.050781 515.574219 541.066406 C 521.035156 541.09375 521.277344 541.417969 521.277344 548.585938 L 521.277344 555.140625 L 506.84375 555.433594 C 493.863281 555.695312 492.007812 555.90625 488.453125 557.527344 C 480.347656 561.222656 476.164062 567.3125 475.582031 576.253906 C 474.976562 585.5625 469.609375 584.746094 532 584.859375 L 585.488281 584.957031 L 587 583.089844 C 590.363281 578.941406 588.074219 569.398438 582.167969 562.9375 C 576.3125 556.53125 574.21875 555.90625 557.042969 555.46875 L 542.578125 555.097656 L 543.03125 541.449219 L 549.191406 540.949219 C 559.871094 540.082031 564.96875 536.226562 567.65625 526.976562 C 569.457031 520.777344 568.902344 493.082031 566.878906 488.464844 C 563.917969 481.695312 557.867188 478.003906 548.3125 477.136719 L 542.242188 476.585938 L 542.039062 398.101562 L 541.835938 319.613281 L 544.304688 318.339844 C 547.996094 316.429688 553.558594 311.015625 555.859375 307.089844 C 557.71875 303.914062 558.101562 303.65625 560.351562 304.074219 C 561.703125 304.324219 572.597656 305.960938 584.558594 307.710938 C 596.523438 309.460938 608.246094 311.242188 610.613281 311.671875 C 612.976562 312.101562 615.023438 312.453125 615.160156 312.453125 C 616.125 312.453125 613.929688 317.753906 602.519531 342.929688 C 595.433594 358.578125 586.265625 378.996094 582.152344 388.300781 C 575.757812 402.761719 574.304688 405.441406 572.144531 406.746094 C 569.175781 408.535156 567.582031 412.558594 568.367188 416.273438 C 569.347656 420.914062 573.792969 428.214844 579.023438 433.777344 C 592.914062 448.542969 609.207031 454.699219 632.019531 453.804688 C 644.578125 453.3125 649.449219 452.132812 659.707031 447.121094 C 666.070312 444.011719 668.3125 442.351562 674.355469 436.289062 C 686.984375 423.609375 690.980469 411.484375 683.90625 407.3125 C 681.023438 405.609375 683.414062 410.589844 652.640625 342.21875 L 639.15625 312.261719 L 641.125 309.921875 C 644.929688 305.40625 643.242188 298.382812 637.65625 295.496094 C 635.648438 294.457031 621.53125 292.105469 582.582031 286.324219 C 564.964844 283.707031 555.417969 282.042969 555.039062 281.523438 C 551.613281 276.8125 548.925781 274.058594 545.757812 272.003906 L 541.84375 269.46875 L 541.84375 258.847656 C 541.84375 247 541.050781 244.117188 537.164062 241.816406 C 534.375 240.171875 528.769531 240.117188 525.839844 241.707031 M 367.40625 317 C 362.734375 332.453125 353.304688 359.871094 346.144531 378.816406 C 341.972656 389.863281 338.554688 399.050781 338.554688 399.230469 C 338.554688 399.410156 338.234375 399.359375 337.847656 399.117188 C 337.457031 398.878906 336.539062 395.386719 335.808594 391.359375 C 335.078125 387.332031 332.917969 376.304688 331.007812 366.855469 C 326.890625 346.492188 326.808594 345.53125 328.828125 340.925781 C 329.6875 338.96875 331.175781 334.4375 332.136719 330.855469 C 335.007812 320.128906 334.171875 319.570312 315.234375 319.570312 C 301.5 319.570312 301.277344 319.597656 299.363281 321.511719 C 298.296875 322.582031 297.421875 324.039062 297.421875 324.757812 C 297.421875 326.824219 302.101562 340.238281 303.761719 342.921875 C 305.441406 345.640625 305.789062 343.058594 300.28125 368.613281 C 294.558594 395.179688 293.691406 398.671875 292.84375 398.667969 C 292.027344 398.664062 280.453125 366.800781 270.355469 336.773438 C 265.566406 322.527344 261.273438 310.871094 260.820312 310.871094 C 259.226562 310.871094 209.921875 330.859375 202.488281 334.519531 C 174.226562 348.433594 164.769531 363.375 159.378906 402.625 C 158.433594 409.515625 149.257812 491.449219 146.3125 519.300781 C 145.851562 523.652344 145.140625 530.238281 144.730469 533.933594 C 137.328125 600.75 137.171875 604.101562 141.050781 612.273438 C 144.074219 618.640625 147.882812 622.667969 153.585938 625.523438 C 170.761719 634.117188 189.976562 626.789062 195.636719 609.476562 C 197 605.3125 199.234375 586.394531 201.332031 561.226562 C 202.023438 552.960938 203.800781 535.695312 205.28125 522.859375 C 207.949219 499.777344 211.601562 463.644531 212.527344 451.136719 C 213.015625 444.578125 213.765625 442.105469 214.914062 443.253906 C 215.265625 443.605469 215.660156 488.265625 215.792969 542.503906 C 216.0625 651.421875 215.714844 644.359375 220.949219 648.1875 C 223.171875 649.8125 223.667969 649.820312 311.519531 650.019531 C 394.433594 650.210938 400.023438 650.136719 402.570312 648.835938 C 404.0625 648.070312 406.019531 646.441406 406.921875 645.210938 C 408.546875 642.992188 408.558594 642.519531 408.558594 573.886719 C 408.558594 535.886719 408.820312 504.539062 409.132812 504.226562 C 409.808594 503.550781 409.859375 503.703125 412.023438 512.972656 C 415.875 529.445312 423.332031 538.414062 436.867188 542.847656 C 441.273438 544.292969 444.378906 544.496094 466.988281 544.824219 L 492.191406 545.1875 L 488.953125 540.550781 C 483.910156 533.339844 483.109375 528.882812 483.003906 507.4375 C 482.921875 490.652344 483.046875 488.898438 484.605469 484.785156 L 486.292969 480.324219 L 483.417969 479.847656 C 481.835938 479.585938 476.171875 479.367188 470.832031 479.363281 L 461.121094 479.355469 L 460.324219 477.253906 C 459.882812 476.097656 459.238281 473.070312 458.890625 470.527344 C 458.542969 467.984375 458.050781 465.699219 457.796875 465.441406 C 457.539062 465.1875 455.257812 465.445312 452.722656 466.019531 C 449.84375 466.667969 443.355469 467.027344 435.453125 466.972656 C 424.628906 466.898438 421.695312 466.597656 415.1875 464.886719 C 394.261719 459.386719 376.960938 446.378906 368.460938 429.75 C 360.957031 415.066406 361.527344 404.296875 370.207031 396.867188 C 373.136719 394.359375 374.863281 390.890625 388.828125 359.453125 C 397.292969 340.394531 403.949219 324.539062 403.621094 324.222656 C 403.292969 323.90625 398.929688 321.984375 393.925781 319.957031 C 388.921875 317.925781 381.554688 314.875 377.550781 313.171875 C 373.550781 311.472656 370.101562 310.078125 369.886719 310.078125 C 369.675781 310.078125 368.558594 313.191406 367.40625 317 M 430.339844 343.890625 C 427.53125 350.308594 420.335938 366.378906 414.347656 379.601562 C 408.355469 392.820312 403.246094 404.300781 402.988281 405.109375 C 402.535156 406.53125 403.710938 406.582031 435.796875 406.582031 C 454.097656 406.582031 469.070312 406.289062 469.070312 405.929688 C 469.070312 405.570312 464.4375 395.042969 458.769531 382.53125 C 453.101562 370.023438 445.828125 353.683594 442.605469 346.222656 C 439.378906 338.761719 436.449219 332.558594 436.089844 332.4375 C 435.734375 332.320312 433.144531 337.472656 430.339844 343.890625 M 624.933594 337.421875 C 623.613281 340.28125 622.53125 342.769531 622.53125 342.953125 C 622.53125 343.304688 605.730469 380.433594 598.328125 396.449219 C 595.976562 401.539062 594.054688 405.898438 594.054688 406.140625 C 594.054688 406.382812 609.179688 406.582031 627.671875 406.582031 C 651.984375 406.582031 661.289062 406.335938 661.289062 405.695312 C 661.289062 405.207031 656.078125 393.371094 649.707031 379.394531 C 643.335938 365.414062 636.621094 350.417969 634.785156 346.070312 C 630.386719 335.648438 628.695312 332.226562 627.953125 332.226562 C 627.617188 332.226562 626.257812 334.566406 624.933594 337.421875 " fill-opacity="1" fill-rule="evenodd"/></svg>