<svg xmlns="http://www.w3.org/2000/svg" xmlns:xlink="http://www.w3.org/1999/xlink" width="1080" zoomAndPan="magnify" viewBox="0 0 810 809.999993" height="1080" preserveAspectRatio="xMidYMid meet" version="1.0"><path fill="currentColor" d="M 320.757812 138.160156 C 310.207031 139.816406 294.496094 145.667969 284.449219 151.691406 C 276.914062 156.207031 267.6875 165.140625 261.972656 173.453125 C 248.691406 192.777344 242.753906 216.078125 243.898438 244.359375 C 245.136719 274.921875 253.117188 299.695312 268.199219 319.785156 C 291.597656 350.949219 328.039062 363.769531 359.714844 351.984375 C 390.839844 340.40625 411.25 314.773438 421.113281 274.878906 C 424.695312 260.382812 425.171875 255.925781 425.171875 236.910156 C 425.171875 221.976562 424.90625 217.582031 423.703125 212.386719 C 416.019531 179.304688 398.101562 156.367188 370.71875 144.554688 C 358.242188 139.171875 353.472656 138.234375 337.367188 138 C 329.535156 137.882812 322.0625 137.957031 320.757812 138.160156 M 545.375 329.671875 C 544.054688 330.421875 540.320312 332.859375 537.070312 335.078125 C 509.070312 354.234375 478.082031 368.945312 439.011719 381.621094 C 430.09375 384.515625 422.050781 387.375 421.140625 387.972656 C 417.425781 390.402344 417.421875 390.441406 418.347656 446.3125 C 419.421875 511.410156 419.984375 516.382812 428.757812 538.507812 C 445.871094 581.652344 482.417969 617.691406 544.316406 652.460938 C 551.023438 656.230469 552.496094 655.957031 565.234375 648.5625 C 609.03125 623.128906 640.492188 595.082031 659.363281 564.652344 C 672.441406 543.5625 679.707031 521.921875 682.234375 496.558594 C 683.886719 479.945312 685.179688 439.453125 684.882812 413.585938 C 684.644531 392.65625 684.507812 390.800781 683.125 389.269531 C 682.21875 388.269531 677.988281 386.496094 672.445312 384.789062 C 624.292969 369.964844 592.675781 355.839844 560.039062 334.570312 C 550.507812 328.359375 548.722656 327.761719 545.375 329.671875 M 544.21875 364.878906 C 536.382812 370.433594 515.472656 382.53125 504.273438 387.992188 C 489.628906 395.132812 475.703125 400.746094 459.183594 406.15625 L 446.527344 410.304688 L 445.972656 422.878906 C 445.324219 437.667969 445.949219 484.171875 446.953125 495.652344 C 448.300781 511.035156 451.101562 521.570312 457.246094 534.332031 C 468.183594 557.054688 489.484375 580.832031 516.53125 600.507812 C 524.609375 606.382812 541.15625 617.136719 547.996094 620.957031 C 551.9375 623.15625 550.84375 623.566406 564.390625 614.804688 C 608.011719 586.601562 636.945312 554.65625 648.480469 521.976562 C 653.933594 506.535156 654.925781 495.433594 654.960938 449.703125 C 654.976562 428.8125 654.984375 411.277344 654.976562 410.734375 C 654.96875 410.191406 654.449219 409.746094 653.820312 409.746094 C 653.191406 409.746094 648.488281 408.476562 643.363281 406.921875 C 619.976562 399.832031 585.351562 384.046875 561.226562 369.476562 C 554.699219 365.535156 549.003906 362.320312 548.570312 362.332031 C 548.132812 362.34375 546.175781 363.492188 544.21875 364.878906 M 260.640625 372.699219 C 242.851562 380.582031 181.566406 409.117188 173.101562 413.453125 C 141.011719 429.902344 134.242188 447.335938 127.390625 531.167969 C 124.710938 563.96875 123.988281 579.640625 124.972656 583.742188 C 126.058594 588.265625 130.480469 594.25 135.597656 598.117188 C 143.289062 603.929688 130.921875 603.527344 302.585938 603.542969 C 387.410156 603.554688 457.117188 603.558594 457.488281 603.554688 C 457.859375 603.546875 455.394531 600.609375 452.007812 597.019531 C 437.621094 581.761719 426.042969 563.121094 417.246094 541.054688 C 407.058594 515.503906 405.472656 500.148438 405.984375 431.894531 C 406.230469 398.777344 406.519531 389.726562 407.410156 387.203125 C 408.023438 385.460938 410.226562 382.332031 412.300781 380.242188 C 414.375 378.15625 416.074219 376.335938 416.074219 376.203125 C 416.074219 375.445312 401.609375 370.121094 401.113281 370.691406 C 400.785156 371.070312 399.183594 376.1875 397.554688 382.058594 C 392.15625 401.542969 385.390625 423.300781 377.023438 448.109375 C 363.746094 487.457031 363.742188 487.457031 362.917969 486.632812 C 362.117188 485.832031 349.671875 424.953125 349.644531 421.691406 C 349.636719 420.648438 351.601562 415.40625 354.007812 410.042969 C 360.953125 394.574219 361.171875 393.628906 358.5 390.5625 C 357.40625 389.304688 355.238281 389.179688 334.871094 389.179688 C 313.109375 389.179688 312.402344 389.230469 310.78125 390.851562 C 308.433594 393.199219 309.050781 395.914062 314.785156 408.535156 C 317.417969 414.328125 319.570312 420.132812 319.570312 421.4375 C 319.570312 427.253906 307.371094 486.476562 306.175781 486.476562 C 304.820312 486.476562 285.703125 430.082031 276.007812 397.484375 C 268.59375 372.566406 268 370.792969 266.960938 370.480469 C 266.527344 370.351562 263.683594 371.351562 260.640625 372.699219 M 603.921875 432.644531 C 602.578125 433.191406 558.742188 477.472656 538.519531 498.714844 L 532.511719 505.023438 L 514.832031 487.023438 C 499.515625 471.425781 496.839844 469.023438 494.792969 469.046875 C 492.875 469.066406 490.921875 470.578125 484.3125 477.164062 C 477.511719 483.941406 476.199219 485.648438 476.234375 487.648438 C 476.269531 489.695312 479.980469 493.796875 502.535156 516.722656 C 524.164062 538.703125 529.269531 543.503906 531.492188 543.9375 C 534.171875 544.464844 534.363281 544.292969 556.410156 521.964844 C 604.496094 473.269531 624.902344 451.851562 624.902344 450.074219 C 624.902344 447.175781 609.1875 431.785156 606.390625 431.945312 C 605.914062 431.972656 604.800781 432.285156 603.921875 432.644531 " fill-opacity="1" fill-rule="evenodd"/></svg>