<svg xmlns="http://www.w3.org/2000/svg" xmlns:xlink="http://www.w3.org/1999/xlink" width="1080" zoomAndPan="magnify" viewBox="0 0 810 809.999993" height="1080" preserveAspectRatio="xMidYMid meet" version="1.0"><path fill="currentColor" d="M 399.066406 72.171875 C 393.121094 76.566406 332.0625 120.386719 303.15625 141.007812 L 285.554688 153.566406 L 285.554688 410.472656 L 287.730469 412.488281 C 288.925781 413.597656 292.355469 416.191406 295.351562 418.253906 L 300.800781 422.007812 L 322.246094 421.976562 L 343.695312 421.945312 L 353.1875 417.117188 C 362.648438 412.308594 371.765625 408.828125 378.960938 407.285156 C 381.042969 406.839844 383.121094 406.019531 383.582031 405.46875 C 384.125 404.8125 384.488281 393.78125 384.621094 373.683594 L 384.828125 342.90625 L 425.960938 342.90625 L 426.183594 374.925781 C 426.304688 392.539062 426.660156 407.179688 426.976562 407.46875 C 427.289062 407.753906 432.347656 409.269531 438.222656 410.832031 C 444.097656 412.394531 453.527344 414.910156 459.183594 416.425781 C 478.085938 421.484375 479.152344 421.609375 502.742188 421.609375 C 522.867188 421.609375 524.445312 421.511719 524.488281 420.226562 C 524.511719 419.464844 524.507812 359.226562 524.480469 286.363281 C 524.433594 161.480469 524.351562 153.808594 523.054688 152.5625 C 522.296875 151.835938 505.121094 139.402344 484.890625 124.929688 C 464.664062 110.460938 438.625 91.738281 427.03125 83.324219 C 415.4375 74.910156 405.648438 68.039062 405.277344 68.054688 C 404.910156 68.070312 402.113281 69.921875 399.066406 72.171875 M 328.003906 202.972656 C 327.71875 216.71875 327.679688 228.289062 327.921875 228.679688 C 328.167969 229.074219 336.351562 229.394531 346.117188 229.394531 L 363.867188 229.394531 L 363.867188 177.976562 L 328.527344 177.976562 Z M 388.386719 203.6875 L 388.386719 229.394531 L 422.402344 229.394531 L 422.402344 177.980469 L 388.386719 177.980469 Z M 446.921875 203.6875 L 446.921875 229.394531 L 482.519531 229.394531 L 482.519531 177.980469 L 446.921875 177.980469 Z M 327.886719 262.023438 C 327.625 263.871094 327.511719 275.53125 327.640625 287.929688 L 327.875 310.472656 L 345.496094 310.386719 C 355.1875 310.339844 363.25 310.160156 363.414062 309.992188 C 363.988281 309.394531 364.046875 306.335938 363.957031 282.589844 L 363.867188 258.664062 L 328.367188 258.664062 Z M 387.597656 284.371094 L 387.597656 310.078125 L 403.351562 310.078125 C 412.019531 310.078125 419.582031 310.253906 420.164062 310.464844 C 422.90625 311.472656 423.03125 310.117188 422.597656 284.171875 L 422.167969 258.664062 L 387.597656 258.664062 Z M 446.660156 259.191406 C 446.371094 259.480469 446.132812 271.007812 446.132812 284.804688 L 446.132812 309.894531 L 451.078125 310.332031 C 453.796875 310.574219 461.785156 310.800781 468.828125 310.835938 C 479.210938 310.882812 481.757812 310.679688 482.273438 309.753906 C 482.628906 309.125 482.816406 297.371094 482.695312 283.636719 L 482.476562 258.664062 L 464.832031 258.664062 C 455.128906 258.664062 446.949219 258.898438 446.660156 259.191406 M 215.191406 390.976562 C 213.132812 392.019531 212.808594 392.472656 185.117188 432.683594 C 173.230469 449.921875 161.300781 467.125 149.324219 484.296875 C 139.371094 498.542969 130.71875 511.425781 130.089844 512.925781 C 128.367188 517.050781 129.929688 520.832031 134.769531 524.246094 C 136.566406 525.507812 148.464844 533.929688 161.214844 542.957031 C 173.96875 551.984375 185.628906 559.878906 187.128906 560.507812 C 190.429688 561.886719 193.464844 561.300781 196.207031 558.761719 L 198.214844 556.894531 L 210 566.433594 C 216.480469 571.683594 224.179688 577.757812 227.105469 579.933594 L 232.429688 583.890625 L 229.238281 590.535156 C 225.328125 598.6875 224.5625 604.820312 226.578125 611.90625 C 229.699219 622.902344 238.320312 630.796875 250.648438 633.957031 L 254.109375 634.839844 L 255.855469 640.902344 C 257.742188 647.445312 259.96875 651.265625 264.652344 655.996094 C 270.109375 661.507812 278.5625 665.210938 285.746094 665.234375 C 288.601562 665.246094 288.785156 665.414062 290.984375 670.1875 C 294.285156 677.351562 297.402344 681.183594 302.949219 684.890625 C 308.988281 688.917969 312.734375 690.046875 320.289062 690.113281 L 326.144531 690.160156 L 327.40625 693.675781 C 329.277344 698.890625 336.097656 705.847656 342.371094 708.933594 C 347.152344 711.285156 348.265625 711.515625 354.757812 711.484375 C 361.015625 711.457031 362.421875 711.175781 366.238281 709.199219 C 368.632812 707.957031 373.183594 704.429688 376.355469 701.355469 L 382.121094 695.765625 L 384.664062 697.15625 C 386.058594 697.917969 393.246094 703.332031 400.632812 709.1875 C 408.015625 715.039062 415.671875 720.453125 417.636719 721.210938 C 420.230469 722.214844 423.5 722.589844 429.519531 722.585938 C 437.097656 722.582031 438.199219 722.386719 442.082031 720.347656 C 447.640625 717.425781 453.152344 711.84375 456.496094 705.734375 L 459.183594 700.832031 L 463.582031 701.316406 C 468.53125 701.863281 475.722656 700.335938 481.074219 697.605469 C 489.492188 693.3125 498.339844 681.03125 498.339844 673.640625 L 498.339844 670.386719 L 505.277344 670.386719 C 511.515625 670.386719 512.746094 670.125 517.464844 667.800781 C 526.675781 663.265625 534.332031 653.277344 536.449219 643.035156 L 537.375 638.542969 L 542.183594 638.128906 C 547.929688 637.632812 552.988281 635.476562 558.347656 631.242188 C 568.878906 622.917969 573.328125 608.914062 569.847656 595.039062 C 569.152344 592.261719 568.707031 589.894531 568.859375 589.773438 C 569.011719 589.652344 572.515625 587.109375 576.648438 584.125 C 583.191406 579.402344 590.199219 573.902344 606.992188 560.324219 L 611.039062 557.050781 L 613.285156 558.941406 C 615.777344 561.039062 621.277344 561.53125 624.359375 559.933594 C 626.152344 559.007812 631.960938 554.941406 654.167969 539.058594 C 661.347656 533.921875 668.789062 528.625 670.710938 527.28125 C 676.847656 522.984375 678.878906 521.019531 680.019531 518.296875 C 681.046875 515.835938 680.980469 515.324219 679.148438 511.535156 C 678.054688 509.28125 674.136719 503.164062 670.4375 497.945312 C 665.695312 491.238281 660.984375 484.515625 656.300781 477.773438 L 641.476562 456.414062 C 637.398438 450.542969 625.925781 433.8125 615.980469 419.238281 C 606.035156 404.664062 597.121094 392.304688 596.171875 391.777344 C 592.332031 389.640625 589.855469 390.496094 579.296875 397.613281 C 573.707031 401.382812 561.484375 409.433594 552.128906 415.503906 C 530.261719 429.695312 530.539062 429.4375 530.949219 435.257812 L 531.269531 439.804688 L 480.289062 439.804688 L 469.738281 437.101562 C 463.933594 435.613281 451.53125 432.429688 442.175781 430.027344 C 420.421875 424.433594 411.371094 422.875 401.042969 422.9375 C 384.417969 423.039062 370.03125 427.496094 355.613281 437.011719 L 350.128906 440.632812 L 322.390625 440.457031 C 281.496094 440.195312 277.386719 440 278.089844 438.367188 C 279.242188 435.679688 279.386719 432.605469 278.464844 430.378906 C 277.140625 427.1875 220.605469 389.8125 217.355469 389.984375 C 217.234375 389.988281 216.257812 390.4375 215.1875 390.976562 M 391.324219 439.125 C 380.136719 441.269531 364.75 451.976562 351.367188 466.933594 C 339.753906 479.910156 321.152344 505.601562 321.152344 508.664062 C 321.152344 510.753906 327.015625 515.40625 331.089844 516.546875 C 335.925781 517.902344 341.8125 517.066406 346.5 514.359375 C 348.628906 513.132812 358.65625 505.34375 368.785156 497.054688 C 378.914062 488.761719 388.019531 481.546875 389.015625 481.015625 C 390.191406 480.390625 394.6875 480.058594 401.839844 480.070312 C 411.144531 480.082031 413.316406 480.324219 415.847656 481.613281 C 420.417969 483.945312 483.617188 526.390625 512.578125 546.578125 C 526.71875 556.433594 542.289062 567.253906 547.183594 570.621094 L 556.078125 576.746094 L 564.980469 570.058594 C 569.875 566.382812 579.042969 559.386719 585.351562 554.511719 C 589.917969 550.980469 594.488281 547.457031 599.066406 543.945312 L 601.308594 542.238281 L 595.480469 533.933594 C 589.1875 524.964844 564.140625 489.449219 550.578125 470.257812 L 542.191406 458.394531 L 478.167969 457.511719 L 465.511719 454.144531 C 458.550781 452.292969 443.78125 448.332031 432.683594 445.339844 C 405.089844 437.90625 400.941406 437.28125 391.324219 439.125 M 260.488281 468.167969 C 248.761719 485.324219 225.421875 518.9375 219.484375 527.210938 C 216.363281 531.5625 212.789062 536.683594 211.539062 538.59375 L 209.265625 542.0625 L 212.734375 545.144531 C 216.6875 548.652344 243.816406 569.523438 244.429688 569.527344 C 244.652344 569.53125 247.226562 566.710938 250.15625 563.265625 C 257.539062 554.582031 261.742188 552.523438 272.109375 552.523438 C 278.570312 552.523438 280.234375 552.8125 283.972656 554.589844 C 290.015625 557.457031 295.105469 562.238281 298.101562 567.863281 C 300.570312 572.492188 300.710938 572.609375 302.792969 571.753906 C 303.972656 571.273438 308.140625 570.84375 312.054688 570.804688 C 318.261719 570.742188 319.777344 571.015625 323.867188 572.921875 C 332.597656 576.996094 337.972656 582.695312 340.871094 590.945312 L 342.382812 595.238281 L 348.972656 595.664062 C 363.707031 596.609375 375.246094 606.875 376.957031 620.566406 C 377.304688 623.382812 377.867188 624.902344 378.550781 624.902344 C 379.132812 624.902344 382.453125 625.800781 385.933594 626.902344 C 391 628.5 393.132812 629.695312 396.617188 632.882812 C 408.777344 643.992188 409.203125 660.082031 397.773438 676.378906 C 394.917969 680.449219 394.601562 681.28125 395.566406 682.1875 C 398.65625 685.09375 421.132812 702.679688 423.011719 703.660156 C 426.179688 705.3125 433.378906 705.109375 436.132812 703.292969 C 439.453125 701.105469 441.375 697.730469 441.382812 694.074219 C 441.386719 690.101562 440.066406 688.769531 426.15625 678.75 C 420.355469 674.570312 415.566406 670.507812 414.882812 669.191406 C 411.667969 662.972656 415.625 656.542969 422.671875 656.542969 C 425.800781 656.542969 428.726562 658.390625 448.050781 672.589844 C 454.542969 677.359375 461.101562 681.78125 462.625 682.417969 C 468.613281 684.917969 476.816406 681.21875 480.042969 674.558594 C 482.25 670 482.1875 666.289062 479.855469 662.855469 C 478.167969 660.371094 454.535156 642.847656 428.589844 624.84375 C 419.355469 618.433594 417.65625 616.375 417.65625 611.589844 C 417.65625 605.433594 423.335938 601.46875 428.847656 603.773438 C 431.578125 604.917969 448.054688 616.308594 479.609375 638.863281 C 490.714844 646.800781 498.890625 652.097656 500.859375 652.625 C 507.625 654.449219 514.351562 651.066406 517.429688 644.289062 C 519.308594 640.160156 519.351562 634.28125 517.523438 632.210938 C 516.28125 630.808594 498.980469 618.59375 461.554688 592.691406 C 454.59375 587.875 448.246094 583.210938 447.449219 582.328125 C 443.6875 578.175781 445.464844 570.390625 450.671875 568.214844 C 453.160156 567.175781 453.886719 567.167969 456.386719 568.148438 C 457.960938 568.769531 475.074219 580.253906 494.417969 593.671875 C 513.757812 607.089844 531.363281 618.75 533.539062 619.582031 C 538.386719 621.4375 542.40625 621.042969 546.550781 618.300781 C 552.949219 614.066406 556.035156 601.914062 551.925781 597.121094 C 549.894531 594.75 544.390625 590.664062 523.257812 575.824219 C 484.917969 548.90625 474.800781 541.964844 442.574219 520.496094 C 407.160156 496.90625 407.261719 496.960938 400.300781 497.460938 C 396.992188 497.695312 396.070312 498.332031 379.847656 511.554688 C 360.203125 527.566406 351.292969 532.992188 341.816406 534.710938 C 328.625 537.101562 311.039062 528.769531 304.804688 517.175781 C 303.84375 515.390625 303.390625 512.785156 303.375 509.011719 C 303.355469 503.902344 303.621094 503 306.761719 497.542969 C 308.632812 494.28125 315.496094 484.496094 322.007812 475.796875 L 333.851562 459.976562 L 328.886719 459.457031 C 326.15625 459.171875 311.1875 458.765625 295.621094 458.550781 L 267.324219 458.167969 Z M 269.195312 570.476562 C 267.546875 570.90625 265.378906 572.691406 262.898438 575.671875 C 259.765625 579.429688 256.628906 583.183594 253.484375 586.933594 C 244.019531 598.230469 242.839844 600.148438 242.847656 604.257812 C 242.855469 610.167969 246.695312 614.542969 253.464844 616.355469 C 256.796875 617.246094 257.476562 617.1875 260.082031 615.785156 C 263.226562 614.089844 281.371094 593.273438 283.992188 588.347656 C 285.976562 584.628906 285.976562 581.363281 283.992188 577.476562 C 281.210938 572.019531 274.839844 569.007812 269.195312 570.476562 M 308.792969 588.460938 C 306.890625 589.277344 304.542969 591.957031 288.667969 611.4375 C 272.902344 630.773438 272.898438 630.777344 272.898438 635.1875 C 272.898438 642.039062 278.167969 647.101562 285.53125 647.328125 C 289.160156 647.4375 289.703125 647.191406 293.117188 643.886719 C 297.390625 639.75 320.144531 613.007812 323.101562 608.65625 C 326.863281 603.109375 325.433594 594.609375 320.042969 590.5 C 316.976562 588.160156 311.71875 587.207031 308.792969 588.460938 M 342.488281 615.152344 C 339.636719 617.554688 313.410156 648.324219 309.484375 653.875 C 307.617188 656.515625 306.914062 658.378906 306.914062 660.675781 C 306.914062 664.804688 309.660156 669.613281 312.898438 671.148438 C 315.902344 672.574219 321.835938 672.738281 324.609375 671.476562 C 326.800781 670.476562 357.40625 634.671875 358.886719 631.375 C 363.78125 620.476562 351.085938 607.921875 342.488281 615.152344 M 369.292969 647.644531 C 362.675781 654.464844 344.042969 677.132812 343.15625 679.441406 C 341.492188 683.769531 344.285156 690.179688 348.859375 692.546875 C 351.820312 694.078125 357.507812 694.050781 359.734375 692.492188 C 361.65625 691.144531 380.847656 669.464844 385.425781 663.46875 C 389.113281 658.636719 389.953125 653.90625 387.878906 649.671875 C 385.851562 645.535156 381.957031 643.09375 377.371094 643.09375 C 373.945312 643.09375 373.414062 643.394531 369.292969 647.644531 " fill-opacity="1" fill-rule="evenodd"/></svg>