<svg xmlns="http://www.w3.org/2000/svg" xmlns:xlink="http://www.w3.org/1999/xlink" width="1080" zoomAndPan="magnify" viewBox="0 0 810 809.999993" height="1080" preserveAspectRatio="xMidYMid meet" version="1.0"><path fill="currentColor" d="M 295.839844 143.140625 C 277.105469 147.148438 261.667969 157.171875 249.027344 173.527344 C 242.585938 181.863281 238.832031 189.355469 236.496094 198.546875 C 233.042969 212.128906 233.222656 234.925781 236.90625 249.628906 C 241.679688 268.691406 248.640625 280.398438 263.933594 295.074219 C 270.3125 301.195312 273.191406 303.316406 279.265625 306.359375 C 290.863281 312.171875 297.015625 313.535156 311.660156 313.539062 C 325.542969 313.542969 332.632812 312.128906 343.175781 307.261719 C 364.265625 297.515625 380.941406 274.835938 387.042969 247.589844 C 388.460938 241.253906 388.722656 237.585938 388.695312 224.253906 C 388.667969 209.800781 388.488281 207.777344 386.625 200.847656 C 384.296875 192.179688 382.03125 187.367188 376 178.292969 C 363.195312 159.027344 348.183594 147.417969 330.625 143.210938 C 321.789062 141.09375 305.570312 141.058594 295.839844 143.140625 M 536.703125 144.792969 C 511.617188 148.71875 489.71875 167.277344 481.832031 191.300781 C 479.03125 199.828125 478.402344 205.527344 478.5 221.484375 L 478.59375 236.910156 L 434.664062 236.910156 L 431.027344 239.046875 C 427.199219 241.296875 423.757812 245.207031 422.355469 248.902344 C 421.890625 250.121094 419.949219 263.226562 418.035156 278.027344 C 416.125 292.828125 412.21875 323.089844 409.359375 345.277344 C 406.5 367.464844 401.984375 401.636719 399.332031 421.214844 C 393.691406 462.808594 393.175781 472.660156 396.230469 480.417969 C 399.808594 489.503906 407.71875 496.9375 417.464844 500.378906 L 422.796875 502.261719 L 547.042969 502.277344 C 684.886719 502.296875 675.277344 502.671875 683.453125 496.957031 C 691.203125 491.542969 695.953125 483.183594 697.273438 472.632812 C 697.589844 470.082031 696.898438 461.921875 695.324219 449.691406 C 688.054688 393.183594 684.535156 365.601562 679.527344 325.898438 C 677.03125 306.066406 674.519531 286.238281 671.996094 266.410156 C 670.902344 257.835938 669.425781 249.375 668.71875 247.609375 C 666.894531 243.046875 661.34375 238.40625 656.457031 237.359375 C 654.253906 236.886719 643.824219 236.515625 632.847656 236.515625 L 613.183594 236.515625 L 612.851562 217.726562 C 612.539062 199.878906 612.417969 198.632812 610.40625 192.792969 C 605.082031 177.296875 595.882812 164.847656 583.589844 156.5 C 577.4375 152.320312 567.3125 147.601562 561.03125 145.984375 C 554.859375 144.398438 542.964844 143.816406 536.703125 144.792969 M 533.933594 166.449219 C 521.144531 170 510.445312 179.207031 503.78125 192.402344 C 499.8125 200.269531 499.128906 204.492188 499.128906 221.253906 L 499.128906 236.515625 L 592.46875 236.515625 L 592.457031 222.078125 C 592.445312 205.421875 591.566406 200.425781 587.148438 191.902344 C 582.972656 183.84375 573.417969 174.40625 565.574219 170.597656 C 562.3125 169.015625 557.523438 167.179688 554.929688 166.519531 C 549.34375 165.101562 538.929688 165.066406 533.933594 166.449219 M 612.246094 268.046875 C 612.246094 277.714844 611.273438 279.976562 606.207031 282.09375 C 602.8125 283.511719 600.824219 283.46875 597.546875 281.914062 C 593.042969 279.777344 591.679688 276.601562 591.679688 268.257812 C 591.679688 264.285156 591.355469 261.035156 590.957031 261.035156 C 589.292969 261.035156 583.695312 268.609375 582.578125 272.367188 C 581.097656 277.351562 581.097656 279.515625 582.558594 284.425781 C 585.050781 292.773438 592.554688 298.207031 601.566406 298.1875 C 607.324219 298.175781 611.675781 296.355469 615.789062 292.246094 C 624.171875 283.859375 624.25 270.746094 615.960938 262.023438 C 614.617188 260.609375 613.230469 259.453125 612.882812 259.453125 C 612.53125 259.453125 612.246094 263.320312 612.246094 268.046875 M 474.417969 264.921875 C 471.996094 267.625 470.246094 270.519531 469.476562 273.121094 C 467.984375 278.144531 467.976562 280.296875 469.445312 285.214844 C 471.957031 293.640625 479.515625 299.015625 488.804688 298.988281 C 494.902344 298.964844 499.027344 297.320312 503.148438 293.269531 C 507.03125 289.457031 508.867188 285.285156 509.265625 279.390625 C 509.675781 273.320312 508.023438 268.457031 504.066406 264.078125 C 499.542969 259.066406 498.875 259.746094 499.480469 268.746094 C 499.921875 275.308594 499.785156 276.863281 498.574219 279.171875 C 495.722656 284.613281 489.796875 286.832031 484.648438 284.386719 C 479.910156 282.140625 479.019531 280.003906 478.566406 269.789062 L 478.167969 260.746094 Z M 625.296875 327.933594 C 620.511719 328.546875 607.742188 330.136719 596.921875 331.460938 C 586.097656 332.785156 576.289062 334.363281 575.121094 334.964844 C 571.519531 336.832031 570.019531 342.410156 571.976562 346.699219 C 572.449219 347.738281 576.542969 351.183594 581.070312 354.351562 C 585.804688 357.660156 589.304688 360.660156 589.304688 361.398438 C 589.304688 362.109375 578.714844 373.277344 565.769531 386.21875 C 548.25 403.730469 541.753906 409.746094 540.371094 409.746094 C 539.003906 409.746094 534.46875 405.683594 523.335938 394.488281 C 514.988281 386.097656 506.875 378.621094 505.304688 377.878906 C 501.738281 376.183594 498.945312 376.164062 495.492188 377.800781 C 492.832031 379.0625 432.40625 439.945312 430.539062 443.25 C 430.007812 444.183594 429.566406 446.5 429.550781 448.402344 C 429.523438 451.378906 429.945312 452.28125 432.59375 454.925781 C 435.285156 457.621094 436.121094 457.996094 439.367188 457.996094 C 441.40625 457.996094 443.851562 457.605469 444.800781 457.125 C 445.75 456.640625 458.105469 444.539062 472.253906 430.230469 C 490.617188 411.65625 498.480469 404.207031 499.730469 404.207031 C 501.46875 404.207031 509.625 411.234375 525.992188 426.828125 C 530.144531 430.78125 534.421875 434.609375 535.496094 435.328125 C 538.609375 437.417969 543.472656 437.015625 547.066406 434.375 C 548.761719 433.125 562.496094 419.957031 577.585938 405.105469 C 592.675781 390.253906 605.371094 378.105469 605.800781 378.105469 C 608.078125 378.105469 609.46875 379.785156 613.191406 387.03125 C 615.4375 391.40625 618.308594 396.160156 619.570312 397.597656 C 623.507812 402.085938 629.460938 401.859375 632.917969 397.089844 C 633.949219 395.667969 635.6875 387.089844 639.121094 366.476562 C 641.742188 350.726562 643.886719 336.648438 643.886719 335.191406 C 643.886719 331.941406 639.898438 327.6875 636.351562 327.160156 C 635.058594 326.96875 630.082031 327.316406 625.296875 327.933594 M 246.796875 337.074219 C 242.230469 338.75 230.660156 342.84375 221.089844 346.175781 C 193.484375 355.785156 182.09375 361.058594 170.859375 369.421875 C 159.632812 377.78125 150.589844 389.875 146.347656 402.207031 C 142.984375 411.980469 142.050781 418.9375 129.730469 526.023438 L 123.40625 581 C 121.703125 595.792969 119.890625 611.609375 119.378906 616.152344 C 118.125 627.300781 118.796875 633.519531 121.9375 639.90625 C 128.261719 652.75 142.917969 660.5 156.433594 658.148438 C 163.363281 656.941406 167.828125 654.695312 173.210938 649.710938 C 181.605469 641.941406 180.628906 646.78125 191.777344 557.53125 C 202.03125 475.460938 203.023438 468.28125 204.125 468.28125 C 206.234375 468.28125 206.445312 477.347656 206.449219 567.382812 C 206.457031 669.953125 206.1875 664.449219 211.351562 667.597656 C 213.9375 669.175781 215.078125 669.195312 308.101562 669.195312 C 401.121094 669.195312 402.261719 669.175781 404.851562 667.597656 C 409.925781 664.5 409.742188 667.261719 409.796875 594.277344 C 409.828125 553.699219 410.125 528.695312 410.566406 529.792969 C 413.660156 537.492188 418.191406 575.136719 419.921875 607.5 C 420.730469 622.636719 421.722656 625.636719 428.042969 632.128906 C 435.082031 639.355469 445.9375 642.566406 456.132812 640.4375 C 463.605469 638.882812 469.238281 635.914062 474.257812 630.894531 C 478.859375 626.292969 481.285156 622.101562 482.511719 616.640625 C 483.058594 614.199219 483.152344 597.171875 482.792969 565.214844 L 482.261719 517.4375 L 451.738281 517.113281 C 425.652344 516.839844 420.527344 516.589844 416.46875 515.40625 C 401 510.894531 387.574219 498.347656 382.964844 484.097656 C 381.265625 478.851562 380.640625 470.265625 381.402344 462.664062 C 382.164062 455.023438 397.644531 348.648438 398.320312 346.398438 C 398.597656 345.46875 397.089844 344.390625 392.535156 342.253906 C 386.554688 339.445312 370.167969 333.574219 369.675781 334.0625 C 369.542969 334.195312 366.550781 342.828125 363.03125 353.238281 C 351.867188 386.238281 338.523438 421.167969 336.1875 423.503906 C 335.652344 424.039062 335.128906 424.039062 334.589844 423.5 C 334.148438 423.058594 331.992188 412.042969 329.800781 399.015625 C 327.605469 385.992188 325.429688 373.148438 324.960938 370.476562 C 324.148438 365.835938 324.203125 365.496094 326.132812 362.960938 C 330.820312 356.816406 334.066406 344.582031 332.203125 340.082031 C 331.660156 338.773438 330.578125 337.359375 329.796875 336.941406 C 329.015625 336.523438 321.273438 336.179688 312.589844 336.179688 C 293.28125 336.179688 293.042969 336.28125 293.117188 344.222656 C 293.175781 350.605469 295.121094 357.105469 298.457031 362.058594 L 301.078125 365.957031 L 298.507812 380.320312 C 297.097656 388.222656 294.964844 401.011719 293.773438 408.742188 C 291.523438 423.378906 290.808594 425.648438 289.050781 423.828125 C 286.558594 421.242188 274.613281 390.292969 262.859375 355.980469 C 258.765625 344.03125 255.347656 334.203125 255.261719 334.140625 C 255.171875 334.082031 251.363281 335.398438 246.796875 337.074219 " fill-opacity="1" fill-rule="evenodd"/></svg>