<svg xmlns="http://www.w3.org/2000/svg" xmlns:xlink="http://www.w3.org/1999/xlink" width="1080" zoomAndPan="magnify" viewBox="0 0 810 809.999993" height="1080" preserveAspectRatio="xMidYMid meet" version="1.0"><path fill="currentColor" d="M 321.152344 127.113281 C 308.070312 129.328125 293.4375 135.527344 283.453125 143.089844 C 275.878906 148.824219 272.746094 152.058594 267.136719 159.9375 C 258.859375 171.558594 254.964844 184.476562 254.175781 202.894531 C 253.644531 215.367188 254.980469 237.855469 256.785156 246.796875 C 263.929688 282.183594 288.828125 310.921875 319.175781 318.808594 C 327.242188 320.902344 340.273438 321.074219 349.234375 319.199219 C 371.265625 314.589844 391.78125 298.640625 403.6875 276.855469 C 413.042969 259.746094 416.871094 240.347656 416.863281 210.097656 C 416.855469 184.957031 411.9375 169.417969 399.164062 154.175781 C 387.792969 140.613281 370.597656 131.109375 351.304688 127.726562 C 345.1875 126.652344 326.15625 126.265625 321.152344 127.113281 M 399.242188 336.773438 C 399.019531 337.535156 391.652344 357.738281 382.875 381.664062 C 376.753906 398.363281 370.632812 415.058594 364.503906 431.757812 C 363.175781 435.378906 361.824219 438.050781 361.496094 437.691406 C 360.8125 436.9375 355.578125 410.097656 352.296875 390.519531 C 349.792969 375.574219 349.414062 378.804688 355.46875 363.472656 C 358.585938 355.578125 359.121094 349.886719 357.183594 345.253906 L 356.039062 342.507812 L 336.25 342.507812 C 312.976562 342.507812 314.496094 341.792969 314.46875 352.792969 C 314.457031 359.195312 314.632812 359.890625 318.199219 367.34375 C 322.539062 376.417969 322.636719 377.507812 320.335938 391.136719 C 318.023438 404.828125 311.726562 436.765625 310.976562 438.589844 C 310.433594 439.914062 310.144531 439.617188 309.03125 436.613281 C 305.71875 427.652344 281.734375 362.070312 277.511719 350.417969 C 274.90625 343.242188 272.496094 337.074219 272.148438 336.714844 C 271.457031 336 198.082031 363.042969 187.773438 367.8125 C 163.359375 379.113281 149.492188 398.25 144.347656 427.742188 C 143.050781 435.183594 141.414062 453.339844 132.476562 559.644531 C 129.960938 589.523438 128.308594 613.203125 128.605469 615.015625 C 130.21875 624.84375 135.359375 631.992188 143.792969 636.144531 L 149.070312 638.746094 L 172.425781 638.746094 C 195.300781 638.746094 195.847656 638.707031 199.199219 636.917969 C 201.417969 635.734375 202.980469 634.203125 203.640625 632.566406 C 204.203125 631.179688 206.179688 619.898438 208.03125 607.5 C 211.039062 587.351562 212.683594 579.238281 212.757812 584.144531 C 212.773438 585.007812 214.050781 596.398438 215.601562 609.457031 C 218.554688 634.339844 218.992188 636.042969 222.910156 637.792969 C 224.515625 638.507812 244.597656 638.804688 304.144531 638.992188 C 347.652344 639.125 384.734375 639.019531 386.554688 638.753906 L 389.863281 638.269531 L 386.792969 632.574219 C 381.011719 621.847656 381.269531 626.117188 381.269531 541.84375 C 381.269531 458.996094 381.105469 462.097656 386.015625 452.003906 C 390.476562 442.828125 401.414062 434.714844 412.03125 432.703125 C 414.65625 432.203125 436.046875 431.894531 467.71875 431.894531 L 519.144531 431.894531 L 518.667969 423.785156 C 517.222656 399.25 505.007812 379.273438 484.746094 368.308594 C 482 366.824219 467.648438 360.96875 452.855469 355.300781 C 438.0625 349.632812 420.449219 342.835938 413.710938 340.195312 C 406.972656 337.550781 401.050781 335.390625 400.554688 335.390625 C 400.054688 335.390625 399.464844 336.015625 399.242188 336.773438 M 414.28125 448.535156 C 409.402344 449.75 405.347656 452.199219 402.289062 455.773438 C 398.003906 460.777344 397.003906 465.253906 397.265625 478.253906 L 397.484375 489.242188 L 678.296875 489.242188 L 678.027344 476.980469 C 677.84375 468.648438 677.390625 463.847656 676.617188 461.996094 C 674.910156 457.914062 671.832031 454.226562 668.21875 451.945312 C 665.296875 450.101562 663.890625 449.847656 653.449219 449.273438 C 636.152344 448.320312 417.839844 447.644531 414.28125 448.535156 M 398.21875 529.28125 C 397.386719 530.632812 396.375 609.566406 397.125 614.878906 C 397.867188 620.117188 400.621094 626.273438 404.097656 630.464844 C 407.585938 634.671875 413.324219 637.4375 420.542969 638.390625 C 424.660156 638.9375 465.527344 639.132812 541.84375 638.972656 C 648.574219 638.75 657.230469 638.632812 660.960938 637.363281 C 666.539062 635.460938 671.066406 631.972656 674.300781 627.078125 C 679.382812 619.386719 679.480469 618.308594 679.480469 570.945312 L 679.480469 528.398438 L 539.125 528.398438 C 436.804688 528.398438 398.617188 528.636719 398.21875 529.28125 M 432.132812 581.792969 C 430.042969 583.257812 428.425781 587.867188 429.160156 590.28125 C 429.460938 591.269531 430.4375 592.875 431.332031 593.855469 L 432.960938 595.632812 L 524.601562 595.632812 L 527.292969 592.945312 C 531.132812 589.105469 530.621094 584.632812 526.035156 581.921875 C 524.023438 580.734375 519.371094 580.605469 478.816406 580.605469 C 440.066406 580.605469 433.59375 580.769531 432.132812 581.792969 " fill-opacity="1" fill-rule="evenodd"/></svg>