<svg xmlns="http://www.w3.org/2000/svg" xmlns:xlink="http://www.w3.org/1999/xlink" width="1080" zoomAndPan="magnify" viewBox="0 0 810 809.999993" height="1080" preserveAspectRatio="xMidYMid meet" version="1.0"><path fill="currentColor" d="M 323.128906 130.628906 C 295.925781 134.085938 272.214844 151.960938 261.867188 176.820312 C 256.894531 188.765625 256.019531 193.542969 255.957031 209.222656 C 255.90625 221.71875 256.125 224.332031 257.75 230.582031 C 259.984375 239.175781 265.289062 250.738281 270.035156 257.359375 C 274.082031 263.007812 283.480469 272.253906 288.980469 275.996094 C 295.066406 280.144531 305.570312 284.714844 313.785156 286.800781 C 359.222656 298.324219 403.109375 269.574219 409.789062 223.90625 C 411.296875 213.578125 410.375 195.882812 407.886719 187.441406 C 401.300781 165.105469 387.320312 148.238281 366.859375 137.949219 C 358.714844 133.855469 351.101562 131.648438 341.324219 130.542969 C 333.242188 129.632812 330.910156 129.640625 323.128906 130.628906 M 677.109375 176.972656 C 676.457031 177.21875 654.386719 186.625 628.066406 197.875 C 594.523438 212.210938 579.675781 218.933594 578.429688 220.347656 C 576.332031 222.722656 576.046875 227.386719 577.835938 229.949219 C 578.492188 230.878906 584.453125 235.101562 591.085938 239.332031 C 597.722656 243.5625 604.3125 247.886719 605.738281 248.941406 L 608.324219 250.855469 L 606.574219 253.375 C 605.609375 254.761719 601.566406 260.34375 597.589844 265.78125 C 593.609375 271.21875 585.417969 282.433594 579.378906 290.699219 C 563.160156 312.894531 547.476562 333.089844 525.316406 360.308594 C 520.988281 365.625 514.359375 373.503906 497.976562 392.8125 L 495.636719 395.570312 L 497.390625 409.582031 C 501.125 439.457031 503.113281 454.476562 503.464844 455.425781 C 503.664062 455.972656 504.871094 456.414062 506.144531 456.414062 C 508.121094 456.414062 510.886719 453.933594 524.878906 439.605469 C 563.417969 400.144531 596.324219 361.230469 640.441406 302.953125 C 646.535156 294.898438 652.519531 286.800781 653.742188 284.957031 C 654.960938 283.109375 656.28125 281.601562 656.671875 281.601562 C 657.0625 281.601562 662.980469 285.03125 669.816406 289.21875 C 676.65625 293.410156 683.4375 297.550781 684.882812 298.421875 C 690.050781 301.523438 696.734375 299.953125 698.574219 295.207031 C 699.027344 294.03125 699.199219 291.292969 698.953125 289.117188 C 698.519531 285.265625 692.121094 215.179688 690.542969 196.964844 C 689.289062 182.476562 688.96875 181.015625 686.546875 178.59375 C 684.875 176.921875 683.628906 176.410156 681.324219 176.460938 C 679.65625 176.492188 677.761719 176.722656 677.109375 176.972656 M 385.589844 310.671875 C 382.046875 323.4375 379.28125 332.40625 374.675781 346.070312 C 368.210938 365.242188 358.433594 391.714844 357.445312 392.734375 C 356.28125 393.929688 355.542969 392.195312 353.976562 384.5625 C 353.199219 380.792969 350.835938 369.953125 348.722656 360.476562 C 346.609375 350.996094 344.886719 342.628906 344.894531 341.886719 C 344.902344 341.140625 346.679688 336.660156 348.851562 331.929688 C 352.910156 323.078125 353.683594 318.921875 351.597656 317.1875 C 350.78125 316.515625 345.019531 315.976562 333.601562 315.515625 C 317.078125 314.847656 316.777344 314.863281 315.417969 316.5 C 313.28125 319.066406 313.691406 321.015625 318.382812 330.574219 C 320.777344 335.449219 322.734375 340.394531 322.738281 341.566406 C 322.738281 342.738281 320.976562 350.636719 318.820312 359.121094 C 316.660156 367.605469 313.902344 378.609375 312.683594 383.578125 C 311.46875 388.546875 310.066406 392.746094 309.570312 392.910156 C 309.074219 393.074219 308.125 391.679688 307.457031 389.808594 C 306.789062 387.941406 303.6875 379.46875 300.566406 370.988281 C 293.851562 352.730469 284.179688 323.578125 281.605469 313.835938 C 280.488281 309.605469 279.378906 306.914062 278.746094 306.914062 C 277.066406 306.914062 225.660156 328.085938 217.945312 331.953125 C 205.992188 337.949219 198.261719 344.796875 192.777344 354.238281 C 186.1875 365.59375 185.652344 367.816406 174.40625 430.3125 C 169.355469 458.375 163.226562 492.191406 160.78125 505.457031 C 157.046875 525.746094 156.328125 531.09375 156.28125 539.078125 C 156.226562 548.226562 156.316406 548.757812 158.78125 553.796875 C 161.832031 560.023438 166.824219 564.902344 173.089844 567.769531 C 176.824219 569.476562 178.785156 569.832031 184.703125 569.875 C 190.804688 569.917969 192.457031 569.628906 196.265625 567.84375 C 198.710938 566.695312 202.203125 564.410156 204.023438 562.765625 C 210.152344 557.230469 212.265625 551.980469 215.152344 535.121094 C 216.871094 525.082031 219.023438 513.363281 221.539062 500.316406 C 222.914062 493.195312 225.6875 477.316406 231.417969 443.757812 C 233.910156 429.175781 235.902344 420.761719 236.910156 420.574219 C 237.429688 420.476562 237.769531 449.84375 237.902344 507.066406 L 238.101562 593.707031 L 219.707031 606.820312 C 198.847656 621.6875 173.734375 638.757812 161.183594 646.601562 C 156.515625 649.519531 151.976562 652.820312 151.097656 653.9375 C 147.882812 658.023438 150.046875 664.542969 154.984375 665.628906 C 156.539062 665.96875 159.574219 665.363281 164.359375 663.761719 C 177.679688 659.300781 211.757812 646.007812 226.777344 639.417969 C 232.082031 637.089844 236.765625 635.183594 237.1875 635.183594 C 237.640625 635.183594 238.058594 641.335938 238.21875 650.414062 C 238.480469 664.933594 238.582031 665.804688 240.472656 669.199219 C 243.972656 675.484375 244.195312 675.523438 274.085938 675.523438 C 289.371094 675.519531 301.394531 675.183594 303.09375 674.710938 C 306.125 673.871094 310.429688 669.667969 311.710938 666.292969 C 312.5625 664.058594 313.25 659.320312 319.21875 614.617188 C 321.628906 596.5625 323.871094 580.722656 324.203125 579.417969 C 324.933594 576.53125 328.175781 574.746094 331.410156 575.457031 C 334.484375 576.132812 335.257812 577.246094 336.171875 582.273438 C 336.96875 586.640625 342.832031 627.511719 346.054688 651.171875 C 348.097656 666.15625 349.257812 669.183594 354.3125 672.757812 L 357.671875 675.132812 L 375.796875 675.382812 C 388.984375 675.566406 393.925781 675.386719 393.925781 674.734375 C 393.925781 674.238281 393.003906 672.261719 391.878906 670.339844 C 387.550781 662.953125 387.617188 664.242188 387.605469 588.066406 C 387.597656 528.097656 387.773438 517.023438 388.769531 513.664062 C 390.523438 507.753906 397.234375 500.71875 404.574219 497.089844 C 409.84375 494.488281 411.160156 494.183594 418.832031 493.789062 C 423.914062 493.53125 427.40625 493.011719 427.585938 492.488281 C 427.753906 492.007812 428.175781 475.707031 428.527344 456.261719 C 428.882812 436.816406 429.433594 420.644531 429.753906 420.324219 C 431.160156 418.917969 432.066406 422.207031 433.832031 435.125 C 436.953125 457.992188 441.441406 488.300781 442.078125 490.824219 C 442.648438 493.089844 442.863281 493.199219 446.894531 493.199219 L 451.121094 493.199219 L 453.265625 486.316406 C 454.445312 482.53125 456.535156 477.679688 457.914062 475.53125 C 463.699219 466.515625 475.285156 458.71875 484.636719 457.550781 C 487.382812 457.207031 489.140625 456.574219 489.429688 455.816406 C 489.679688 455.164062 489.292969 450.492188 488.5625 445.4375 C 487.835938 440.382812 485.300781 422.664062 482.929688 406.066406 C 480.5625 389.46875 478.011719 373.449219 477.269531 370.472656 C 472.4375 351.09375 462.425781 338.449219 444.945312 329.652344 C 439.738281 327.027344 388.445312 306.125 387.21875 306.125 C 387.015625 306.125 386.28125 308.167969 385.589844 310.671875 M 488.847656 471.015625 C 472.007812 473.472656 464.410156 483.480469 464.34375 503.285156 L 464.324219 507.832031 L 439.507812 507.832031 C 419.226562 507.832031 414.0625 508.054688 411.253906 509.046875 C 406.960938 510.558594 404.417969 512.859375 402.539062 516.929688 C 401.234375 519.753906 401.078125 522.382812 401.0625 541.601562 C 401.054688 553.429688 401.34375 563.292969 401.707031 563.519531 C 402.070312 563.742188 411.238281 565.710938 422.078125 567.886719 C 443.890625 572.269531 462.945312 575.289062 490.929688 578.796875 L 494.195312 579.207031 L 494.515625 573.574219 C 494.769531 569.058594 495.183594 567.589844 496.605469 566.164062 C 498.296875 564.472656 499.074219 564.378906 512.894531 564.144531 C 527.304688 563.898438 527.425781 563.910156 529.652344 565.828125 C 531.652344 567.546875 531.929688 568.378906 532.21875 573.453125 C 532.441406 577.40625 532.882812 579.277344 533.660156 579.574219 C 534.277344 579.8125 537.882812 579.445312 541.675781 578.757812 C 545.46875 578.070312 554.621094 576.753906 562.015625 575.832031 C 575.867188 574.109375 621.066406 565.417969 624.636719 563.789062 L 626.644531 562.875 L 626.308594 541.089844 C 625.957031 518.367188 625.667969 516.339844 622.277344 512.699219 C 618.175781 508.292969 617.929688 508.257812 588.515625 507.832031 L 561.226562 507.4375 L 560.75 499.0625 C 560.375 492.472656 559.847656 489.757812 558.269531 486.3125 C 554.15625 477.328125 547.257812 472.382812 536.550781 470.738281 C 529.058594 469.585938 497.386719 469.773438 488.847656 471.015625 M 492.011719 489.347656 C 485.992188 490.4375 484.101562 493.425781 484.101562 501.859375 L 484.101562 507.832031 L 540.871094 507.832031 L 541.339844 506.050781 C 541.996094 503.550781 541.046875 495.988281 539.75 493.417969 C 537.757812 489.46875 536.660156 489.28125 514.554688 489.128906 C 503.246094 489.050781 493.097656 489.148438 492.011719 489.347656 M 401.347656 578.585938 C 401.136719 579.136719 401.082031 597.347656 401.226562 619.054688 C 401.519531 662.949219 401.53125 663.035156 406.9375 668.601562 C 410.554688 672.328125 414.5 674.019531 421.542969 674.859375 C 424.914062 675.261719 467.957031 675.480469 519.695312 675.355469 L 611.851562 675.132812 L 615.015625 673.421875 C 619.21875 671.148438 622.871094 667.230469 624.839844 662.871094 C 626.390625 659.441406 626.449219 657.828125 626.46875 618.773438 C 626.484375 579.261719 626.445312 578.230469 624.960938 578.230469 C 624.121094 578.230469 620.117188 579.121094 616.058594 580.207031 C 601.257812 584.171875 565.613281 590.324219 547.023438 592.121094 C 540.082031 592.789062 533.941406 593.722656 533.378906 594.1875 C 532.8125 594.65625 532.351562 596.605469 532.351562 598.527344 C 532.351562 603.078125 530.652344 607.023438 527.917969 608.816406 C 526.121094 609.992188 523.691406 610.304688 514.601562 610.539062 C 497.324219 610.976562 495.550781 609.984375 494.664062 599.378906 C 494.0625 592.183594 495.453125 592.917969 480.144531 591.683594 C 463.246094 590.320312 427.097656 584.109375 409.101562 579.476562 C 403.410156 578.011719 401.644531 577.808594 401.347656 578.585938 " fill-opacity="1" fill-rule="evenodd"/></svg>